<svg font-family="'Helvetica Neue', Arial, sans-serif" height="1250" viewBox="0 0 1000 1250" width="1000" xmlns="http://www.w3.org/2000/svg" xmlns:xlink="http://www.w3.org/1999/xlink"><filter id="a" height="140%"><feGaussianBlur in="SourceAlpha" stdDeviation="2.2"/><feOffset dx="0" dy="3" result="off"/><feComponentTransfer><feFuncA slope="0.35" type="linear"/></feComponentTransfer><feMerge><feMergeNode/><feMergeNode in="SourceGraphic"/></feMerge></filter><path d="m0 0h1000v1250h-1000z" fill="#fafafa"/><g stroke="#e6e6e6" stroke-width=".5"><path d="m0 100h1000m-1000 100h1000m-1000 100h1000m-1000 100h1000m-1000 100h1000m-1000 100h1000m-1000 100h1000m-1000 100h1000m-1000 100h1000m-1000 100h1000m-1000 100h1000m-1000 100h1000"/><path d="m100 0v1250m100-1250v1250m100-1250v1250m100-1250v1250m100-1250v1250m100-1250v1250m100-1250v1250m100-1250v1250m100-1250v1250"/></g><text fill="#111" font-size="26" font-weight="700" text-anchor="middle" x="500" y="48">microDX21 — Hardware Stack (exploded view)</text><text fill="#555" font-size="13" text-anchor="middle" x="500" y="70">Top to bottom assembly. GPIO 2x20 pin header carries through all four boards.</text><g filter="url(#a)"><rect fill="#0a0a0a" height="120" rx="6" stroke="#000" width="420" x="290" y="115"/><rect fill="#0a1620" height="96" rx="3" stroke="#1c2a36" width="396" x="302" y="127"/><path d="m304 129h392v92h-392z" fill="#3aa9ff" opacity=".18"/><g fill="#a8e9ff"><path d="m320 150h56v10h-56z"/><path d="m320 166h36v10h-36z"/><path d="m320 182h72v10h-72z"/><path d="m420 150h40v10h-40z"/><path d="m420 166h56v10h-56z"/><path d="m420 182h32v10h-32z"/><path d="m500 150h48v10h-48z"/><path d="m500 166h64v10h-64z"/><path d="m500 182h40v10h-40z"/><path d="m580 150h36v10h-36z"/><path d="m580 166h48v10h-48z"/><path d="m580 182h56v10h-56z"/><path d="m650 150h32v10h-32z"/><path d="m650 166h40v10h-40z"/><path d="m650 182h28v10h-28z"/></g><rect fill="#0d3b66" height="40" rx="3" stroke="#021f3b" width="440" x="280" y="240"/><text fill="#dbe9ff" font-size="12" font-weight="600" text-anchor="middle" x="500" y="265">Waveshare 2.23" OLED HAT — SSD1305 / SH1106</text><text fill="#bcd0ee" font-size="9" text-anchor="middle" x="500" y="278">128 x 32 px · SPI / I2C · 3.3 V</text><g fill="#0d3b66" font-size="22" font-weight="700"><circle cx="80" cy="200" fill="#fff" r="22" stroke="#0d3b66" stroke-width="2"/><text text-anchor="middle" x="80" y="208">1</text></g></g><g filter="url(#a)"><rect fill="#1f7a3a" height="120" rx="4" stroke="#0d3a1c" width="460" x="270" y="370"/><g fill="#d8b76a" stroke="#7a5e10" stroke-width=".4"><path d="m290 0h4v4h-4z"/><path d="m298 0h4v4h-4z"/><path d="m306 0h4v4h-4z"/><path d="m314 0h4v4h-4z"/><path d="m322 0h4v4h-4z"/><path d="m330 0h4v4h-4z"/><path d="m338 0h4v4h-4z"/><path d="m346 0h4v4h-4z"/><path d="m354 0h4v4h-4z"/><path d="m362 0h4v4h-4z"/><path d="m370 0h4v4h-4z"/><path d="m378 0h4v4h-4z"/><path d="m386 0h4v4h-4z"/><path d="m394 0h4v4h-4z"/><path d="m402 0h4v4h-4z"/><path d="m410 0h4v4h-4z"/><path d="m418 0h4v4h-4z"/><path d="m426 0h4v4h-4z"/><path d="m434 0h4v4h-4z"/><path d="m442 0h4v4h-4z"/><path d="m450 0h4v4h-4z"/><path d="m458 0h4v4h-4z"/><path d="m466 0h4v4h-4z"/><path d="m474 0h4v4h-4z"/><path d="m482 0h4v4h-4z"/><path d="m490 0h4v4h-4z"/><path d="m498 0h4v4h-4z"/><path d="m506 0h4v4h-4z"/><path d="m514 0h4v4h-4z"/><path d="m522 0h4v4h-4z"/><path d="m530 0h4v4h-4z"/><path d="m538 0h4v4h-4z"/><path d="m546 0h4v4h-4z"/><path d="m554 0h4v4h-4z"/><path d="m562 0h4v4h-4z"/><path d="m570 0h4v4h-4z"/><path d="m578 0h4v4h-4z"/><path d="m586 0h4v4h-4z"/><path d="m594 0h4v4h-4z"/><path d="m602 0h4v4h-4z"/><path d="m610 0h4v4h-4z"/><path d="m618 0h4v4h-4z"/><path d="m626 0h4v4h-4z"/><path d="m634 0h4v4h-4z"/><path d="m642 0h4v4h-4z"/><path d="m650 0h4v4h-4z"/><path d="m658 0h4v4h-4z"/><path d="m666 0h4v4h-4z"/><path d="m674 0h4v4h-4z"/><path d="m682 0h4v4h-4z"/><path d="m690 0h4v4h-4z"/><path d="m698 0h4v4h-4z"/><path d="m706 0h4v4h-4z"/></g><g fill="#f5f5dc"><g font-size="9"><text x="305" y="390">3V3</text><text x="345" y="390">GND</text><text x="385" y="390">GPIO17 ENC_A</text><text x="475" y="390">GPIO27 ENC_BTN</text><text x="575" y="390">I2S BCLK / LRC / DATA</text></g><g font-size="9"><text x="305" y="420">I2C SDA / SCL</text><text x="385" y="420">SPI MOSI / SCK</text><text x="475" y="420">+5V</text><text x="515" y="420">GND</text></g><text font-size="9" text-anchor="middle" x="312" y="455">KY-040</text><text font-size="8" text-anchor="middle" x="656" y="430">AUDIO OUT</text><text font-size="8" text-anchor="middle" x="701" y="430">MIDI IN/OUT</text></g><text fill="#0d3a1c" font-size="13" font-weight="700" text-anchor="middle" x="500" y="525">Adafruit Perma-Proto Bonnet Mini (ADA3203)</text><text fill="#0d3a1c" font-size="10" text-anchor="middle" x="500" y="540">Encoder + wiring + audio / MIDI jacks</text><g fill="#0d3a1c" font-size="22" font-weight="700"><circle cx="80" cy="430" fill="#fff" r="22" stroke="#0d3a1c" stroke-width="2"/><text text-anchor="middle" x="80" y="438">2</text></g></g><g filter="url(#a)"><rect fill="#8a1f1f" height="120" rx="4" stroke="#3a0a0a" width="460" x="270" y="610"/><path d="m278 618h444v104h-444z" fill="none" stroke="#f0d6a0" stroke-dasharray="4 3" stroke-width=".8"/><g transform="translate(450 650)"><path d="m0 0h100v60h-100z" fill="#111" stroke="#5a0d0d"/><text fill="#f0d6a0" font-size="11" font-weight="700" text-anchor="middle" x="50" y="28">WM8960</text><text fill="#f0d6a0" font-size="8" text-anchor="middle" x="50" y="44">Stereo CODEC</text><g fill="#c9a45a"><path d="m2 0h3v3h-3z"/><path d="m9 0h3v3h-3z"/><path d="m16 0h3v3h-3z"/><path d="m23 0h3v3h-3z"/><path d="m30 0h3v3h-3z"/><path d="m37 0h3v3h-3z"/><path d="m44 0h3v3h-3z"/><path d="m51 0h3v3h-3z"/><path d="m58 0h3v3h-3z"/><path d="m65 0h3v3h-3z"/><path d="m72 0h3v3h-3z"/><path d="m79 0h3v3h-3z"/><path d="m86 0h3v3h-3z"/><path d="m93 0h3v3h-3z"/><path d="m2 57h3v3h-3z"/><path d="m9 57h3v3h-3z"/><path d="m16 57h3v3h-3z"/><path d="m23 57h3v3h-3z"/><path d="m30 57h3v3h-3z"/><path d="m37 57h3v3h-3z"/><path d="m44 57h3v3h-3z"/><path d="m51 57h3v3h-3z"/><path d="m58 57h3v3h-3z"/><path d="m65 57h3v3h-3z"/><path d="m72 57h3v3h-3z"/><path d="m79 57h3v3h-3z"/><path d="m86 57h3v3h-3z"/><path d="m93 57h3v3h-3z"/></g></g><text fill="#f0d6a0" font-size="9" text-anchor="middle" x="318" y="700">L</text><text fill="#f0d6a0" font-size="9" text-anchor="middle" x="363" y="700">R</text><g transform="translate(610 648)"><path d="m0 0h80v24h-80z" fill="#1f1f1f" stroke="#000"/><g fill="#b87333"><path d="m4 4h14v16h-14z"/><path d="m22 4h14v16h-14z"/><path d="m40 4h14v16h-14z"/><path d="m58 4h14v16h-14z"/></g><text fill="#f0d6a0" font-size="8" y="38">SPK+</text><text fill="#f0d6a0" font-size="8" x="22" y="38">SPK-</text><text fill="#f0d6a0" font-size="8" x="44" y="38">GND</text><text fill="#f0d6a0" font-size="8" x="58" y="38">+5V</text></g><g text-anchor="middle"><text fill="#f0d6a0" font-size="9" x="500" y="725">I2S · I2C · 2x20 GPIO</text><text fill="#3a0a0a" font-size="13" font-weight="700" x="500" y="765">WM8960 Hi-Fi Sound Card HAT</text><text fill="#3a0a0a" font-size="10" x="500" y="780">I2S DAC · headphone + line out + speaker</text></g><g fill="#3a0a0a" font-size="22" font-weight="700"><circle cx="80" cy="670" fill="#fff" r="22" stroke="#3a0a0a" stroke-width="2"/><text text-anchor="middle" x="80" y="678">3</text></g></g><g filter="url(#a)"><rect fill="#0a6e2f" height="120" rx="4" stroke="#054018" width="460" x="270" y="870"/><path d="m278 878h444v104h-444z" fill="none" stroke="#cfe7d4" stroke-dasharray="4 3" stroke-width=".8"/><g transform="translate(450 895)"><path d="m0 0h120v40h-120z" fill="#9aa0a6" stroke="#444"/><path d="m3 3h114v34h-114z" fill="#c0c4c8" stroke="#666"/><g fill="#222" text-anchor="middle"><text font-size="9" font-weight="700" x="60" y="20">BCM2710A1</text><text font-size="7" x="60" y="32">shielding can</text></g></g><g transform="translate(260 895)"><path d="m0 0h14v22h-14z" fill="#cfcfcf" stroke="#444"/><path d="m0 22h14v6h-14z" fill="#a0a0a0" stroke="#444"/><text fill="#cfe7d4" font-size="7" text-anchor="middle" x="7" y="42">PWR IN</text></g><g transform="translate(260 940)"><path d="m0 0h14v22h-14z" fill="#cfcfcf" stroke="#444"/><path d="m0 22h14v6h-14z" fill="#a0a0a0" stroke="#444"/><text fill="#cfe7d4" font-size="7" text-anchor="middle" x="7" y="42">HDMI</text></g><g transform="translate(605 955)"><path d="m0 0h50v22h-50z" fill="#2a2a2a" stroke="#000"/><path d="m2 2h46v18h-46z" fill="#0a0a0a"/><text fill="#cfe7d4" font-size="7" text-anchor="middle" x="25" y="36">microSD</text></g><g text-anchor="middle"><text fill="#cfe7d4" font-size="11" font-weight="700" x="400" y="912">Raspberry Pi Zero 2 WH</text><text fill="#cfe7d4" font-size="8" x="400" y="928">BCM2710A1 · 4x A53 @ 1.0 GHz · 512 MB</text><text fill="#054018" font-size="13" font-weight="700" x="500" y="1020">Raspberry Pi Zero 2 WH</text><text fill="#054018" font-size="10" x="500" y="1035">1 GHz quad-core ARM Cortex-A53, 512 MB RAM</text></g><g fill="#054018" font-size="22" font-weight="700"><circle cx="80" cy="930" fill="#fff" r="22" stroke="#054018" stroke-width="2"/><text text-anchor="middle" x="80" y="938">4</text></g></g><g fill="#333" stroke="#333" stroke-width="1.5"><path d="m780 240v790" stroke-dasharray="6 4"/><path d="m780 232-6 14h12z"/><path d="m780 1038-6-14h12z"/><text fill="#222" font-size="12" font-weight="600" transform="matrix(0 1 -1 0 1435 -155)" x="795" y="640">GPIO 2x20 header passes through all 4 boards</text></g><g fill="#111" font-size="13" font-weight="700"><g transform="translate(820 200)"><rect fill="#eaf3ff" height="60" rx="6" stroke="#0d3b66" width="170" y="-30"/><text x="10" y="-10">1. OLED HAT</text><g fill="#333" font-size="10"><text x="10" y="8">SSD1305 128x32 (SPI/I2C)</text><text x="10" y="22">3.3 V logic level</text></g></g><g transform="translate(820 430)"><rect fill="#e8f5ec" height="60" rx="6" stroke="#0d3a1c" width="170" y="-30"/><text x="10" y="-10">2. Proto Bonnet</text><g fill="#333" font-size="10"><text x="10" y="8">KY-040 encoder, 2x 3.5 mm jacks</text><text x="10" y="22">Wiring + pull-ups</text></g></g><g transform="translate(820 670)"><rect fill="#fbeaea" height="60" rx="6" stroke="#3a0a0a" width="170" y="-30"/><text x="10" y="-10">3. WM8960 HAT</text><g fill="#333" font-size="10"><text x="10" y="8">I2S DAC</text><text x="10" y="22">headphone + line out + speaker</text></g></g><g transform="translate(820 930)"><rect fill="#e6f4ea" height="60" rx="6" stroke="#054018" width="170" y="-30"/><text x="10" y="-10">4. Pi Zero 2 WH</text><g fill="#333" font-size="10"><text x="10" y="8">BCM2710A1, 512 MB</text><text x="10" y="22">bare-metal Circle target</text></g></g></g><g fill="#555" font-size="10"><text x="40" y="1210">microDX21 · doc/images/microdx21_stack_exploded.svg · vector schematic, not to scale</text><text text-anchor="end" x="960" y="1210">Top to bottom assembly order: 1 → 2 → 3 → 4</text></g></svg>